<?xml version="1.0" encoding="utf-8"?>
<svg version="1.1" xmlns="http://www.w3.org/2000/svg" xmlns:xlink="http://www.w3.org/1999/xlink" x="0px" y="0px" viewBox="0 0 1000 1000" enable-background="new 0 0 1000 1000" xml:space="preserve">
<style type="text/css">
  path {
    fill: #fff;
  }
</style>
<g><g><g><g><path d="M633.5,631.9c0,0-52.2-11.8-27.5-63.9c30.5-41,49.1-87.5,50.6-102.8c0,0,47-37,49.8-92.6c2.9-55.4-10.3-58-10.3-58c19.8-60.4,26.2-287.3-119.5-260.2C552.3,6.9,400.1-30.4,329.2,96.3c-35.3,63.2-48.5,149.5-20.9,220c-1,5.3-9.8-5.1-13,27.4c-3.1,31.4,11.1,76.4,26.4,97.2c6.7,8.8,17.4,15.2,24.9,18.5c0,0,9.2,55.9,52.8,108.6c10,41.8-31.5,63.9-31.5,63.9c-137.4,26.4-263.8,102.8-263.8,185.3c0,6.1,0,63.9,0,63.9c0,89.6,208.7,108.8,396.4,108.8c187.8,0,395.1-54,395.1-108.8c0,0,0-57.9,0-63.9C895.8,734.7,770.9,658.4,633.5,631.9z M747.6,920.4H557.4V806.3h190.2V920.4z"/></g></g></g><g></g><g></g><g></g><g></g><g></g><g></g><g></g><g></g><g></g><g></g><g></g><g></g><g></g><g></g><g></g></g>
</svg>