<?xml version="1.0" encoding="utf-8"?>
<!DOCTYPE svg PUBLIC "-//W3C//DTD SVG 1.1//EN" "http://www.w3.org/Graphics/SVG/1.1/DTD/svg11.dtd">
<svg version="1.1" xmlns="http://www.w3.org/2000/svg" xmlns:xlink="http://www.w3.org/1999/xlink" x="0px" y="0px" viewBox="0 0 1000 1000" enable-background="new 0 0 1000 1000" xml:space="preserve">
<style type="text/css">
  path {
    fill: #fff;
  }
</style>
<g><path d="M987.3,481.2c-5.9-24.5-26.5-70.1-42.1-101.7c-27.1-54.9-59.2-97.1-80.5-107.9c-11-6.3-24.6-8.7-40.3-12.1c-10.7-2.3-11.3-19.7-30.8-25.4c34.1-6.5,59.9-36.4,59.9-72.3c0-40.6-33-73.6-73.7-73.6c-40.7,0-73.7,32.9-73.7,73.6c0,35.7,25.4,65.4,59.2,72.1c-21.1,5.5-20.4,22.9-32.5,26.2c-21.7,6-39.9,9.8-52.3,26.4c-5,5.1-10.3,11.2-15.7,18.1c-24.3-39.1-49-67.2-67-76.5c-13.1-7.5-29.2-10.3-48-14.4c-12.8-2.8-13.4-23.5-36.6-30.2c40.6-7.7,71.2-43.3,71.2-86c0-48.4-39.3-87.6-87.7-87.6c-48.4,0-87.7,39.2-87.7,87.6c0,42.5,30.3,77.8,70.4,85.9c-25.1,6.5-24.3,27.3-38.7,31.2c-25.8,7.1-47.5,11.6-62.2,31.4c-13.7,13.8-28.9,33.8-44,58.1c-12.7-16.1-24.6-27.6-34.2-32.5c-11-6.3-24.6-8.7-40.3-12.1c-10.7-2.3-11.3-19.7-30.8-25.4c34.1-6.5,59.9-36.4,59.9-72.3c0-40.6-33-73.6-73.7-73.6c-40.7,0-73.7,32.9-73.7,73.6c0,35.7,25.4,65.4,59.2,72.1c-21.1,5.5-20.4,22.9-32.5,26.2c-21.7,6-39.9,9.8-52.3,26.4c-19,19.2-41.6,52.7-61.5,92.9c-15.6,31.6-36.2,77.1-42.1,101.7c-7.1,29.5,0.9,37.4,10.7,42.3c10.1,5,22.5,5.7,42.2-19.2c9.2-11.6,20.7-58.8,34.1-52c19.4,7.5,11,47.8,7.7,64.1c-3.3,16.3-1.3,56.6-1.8,73.1c-0.5,16.5-1,53.4-1.5,80c-1.1,59.5-7.4,161.4-1.2,203c3.9,33.2,16.7,39.3,30.8,39.3c16.3,0,27-2.6,32.8-40.8c6.2-41,8.6-127.9,11.5-148.4c2.9-20.5,8-85.1,8.1-110c0-11.7,11-23.2,29.3-23.2c19.2,0,29.6,12.1,29.6,22.6c-0.6,24.6,2.5,101.5,2.3,112c-1.1,59.5,2.8,104.8,9,146.4c3.9,33.2,14.6,41.4,28.7,41.4c16.3,0,28.3-1.3,34.1-39.5c6.2-41,3.3-143.8,4.4-201.3c0.5-28-1.4-93.5-1.4-93.5s-1.4-77.6,20.1-77.6c25.2,0,24.1,75.5,24.1,75.5s0.3,11.5-0.3,31.1c-0.6,19.6-1.2,63.5-1.8,95.2c-1.3,70.8-8.8,192.1-1.4,241.6c4.6,39.5,19.9,46.8,36.7,46.7c19.4,0,32.1-3.1,39-48.6c7.4-48.8,10.2-152.2,13.7-176.6c3.5-24.4,9.5-101.3,9.6-130.9c0-13.9,13.1-27.7,34.9-27.7c22.9,0,35.2,14.4,35.2,27c-0.7,29.3,3,120.7,2.8,133.3c-1.3,70.8,3.3,124.7,10.7,174.2c4.6,39.5,17.4,49.3,34.2,49.3c19.4,0,33.7-1.6,40.6-47c7.4-48.8,4-171.1,5.3-239.5c0.6-33.4,2.2-92.9,0.9-122.6c-0.3-7.4-0.6-18.4-1.1-24.7c0.2-2.4,0.2-51.6,22.9-52.6c22.7-1,23.5,56.3,23.5,56.3s-1.3,13.2-1.8,29.7c-0.5,16.5-1,53.4-1.5,80c-1.1,59.5-7.4,161.4-1.2,203c3.9,33.2,16.8,39.3,30.8,39.3c16.3,0,27-2.6,32.8-40.8c6.2-41,8.6-127.9,11.5-148.4c2.9-20.5,8-85.1,8.1-110c0-11.7,11-23.2,29.3-23.2c19.2,0,29.6,12.1,29.6,22.6c-0.6,24.6,2.5,101.5,2.3,112c-1.1,59.5,2.8,104.8,9,146.4c3.9,33.2,14.6,41.4,28.7,41.4c16.3,0,28.3-1.3,34.1-39.5c6.2-41,3.3-143.8,4.4-201.3c0.5-28,1.9-78,0.8-103c-0.3-6.3-0.5-46.7-0.9-52c1.1-15.3-12.9-63.1,5.1-71.9c12.7-5.6,31,47.1,41.4,60.3c19.7,24.8,32.1,24.2,42.2,19.2C986.4,518.6,994.4,510.7,987.3,481.2z M234.5,307.1c-9.3,13.6-18.7,28.3-18.7,28.3s-17.8-21-25-30.9c-7.3-9.9-14.8-23.8-11.3-39c5-18.4,18.1-25.2,36.4-25.2c18.2,0,22.2,7.9,26.5,12.4c4.2,4.5,6.8,12.4,6.8,20.5C249.2,281.4,243.8,293.6,234.5,307.1z M512.8,247.2c-2.9,6.3,15.1,107.4,14.3,117.6c-0.8,10.2-4.4,25.2-11.7,34.6c-3.5,4.5-10.8,12.7-15.8,12.7c-5,0-15-7.3-18.8-12.4c-7.3-9.9-11.4-22.2-11.9-32.6c-0.5-10.4,12.4-112.8,9.7-118.8c-4.1-9.1-27.1-16.3-24.5-27.2c5.9-21.9,21.6-29.9,43.3-29.9c21.7,0,35.8,11.3,39.6,28.9C538.5,229.5,516.4,239.6,512.8,247.2z M798.8,307.1c-9.3,13.6-18.7,28.3-18.7,28.3s-17.8-21-25-30.9c-7.3-9.9-14.8-23.8-11.2-39c5-18.4,18.1-25.2,36.4-25.2c18.2,0,22.2,7.9,26.5,12.4c4.2,4.5,6.8,12.4,6.8,20.5S808.1,293.6,798.8,307.1z"/></g>
</svg>